<svg xmlns="http://www.w3.org/2000/svg" viewBox="0 0 800 450">
  <defs>
    <linearGradient id="bg" x1="0%" y1="0%" x2="100%" y2="100%">
      <stop offset="0%" stop-color="#FFF8F0"/>
      <stop offset="100%" stop-color="#FFEEDD"/>
    </linearGradient>
  </defs>
  <rect width="800" height="450" fill="url(#bg)"/>
  <!-- Tea cup -->
  <ellipse cx="400" cy="280" rx="80" ry="20" fill="#D4A96A" opacity="0.3"/>
  <path d="M 330 220 Q 320 280 340 300 Q 400 320 460 300 Q 480 280 470 220 Z" fill="#E8C87A" opacity="0.7"/>
  <path d="M 460 240 Q 490 240 490 260 Q 490 280 460 280" stroke="#D4A96A" stroke-width="8" fill="none" stroke-linecap="round"/>
  <!-- Steam -->
  <path d="M 370 210 Q 375 190 370 170 Q 365 150 370 130" stroke="#F0A05B" stroke-width="3" fill="none" stroke-linecap="round" opacity="0.5"/>
  <path d="M 400 200 Q 405 180 400 160 Q 395 140 400 120" stroke="#F0A05B" stroke-width="3" fill="none" stroke-linecap="round" opacity="0.4"/>
  <path d="M 430 210 Q 435 190 430 170 Q 425 150 430 130" stroke="#F0A05B" stroke-width="3" fill="none" stroke-linecap="round" opacity="0.5"/>
  <!-- Leaves -->
  <ellipse cx="180" cy="360" rx="60" ry="20" fill="#82B366" opacity="0.4" transform="rotate(-20, 180, 360)"/>
  <ellipse cx="620" cy="340" rx="50" ry="16" fill="#82B366" opacity="0.35" transform="rotate(15, 620, 340)"/>
  <text x="400" y="400" text-anchor="middle" font-size="18" fill="#D4A96A" font-family="serif" font-style="italic">b;„òf</text>
  <text x="400" y="430" text-anchor="middle" font-size="12" fill="#8B93B8" font-family="sans-serif">Sìºb;ö</text>
</svg>
